<?xml version="1.0" standalone="no"?>
<!DOCTYPE svg PUBLIC "-//W3C//DTD SVG 20010904//EN"
 "http://www.w3.org/TR/2001/REC-SVG-20010904/DTD/svg10.dtd">
<svg version="1.0" xmlns="http://www.w3.org/2000/svg"
 width="512.000000pt" height="512.000000pt" viewBox="0 0 512.000000 512.000000"
 preserveAspectRatio="xMidYMid meet">
<metadata>
Created by potrace 1.16, written by Peter Selinger 2001-2019
</metadata>
<g transform="translate(0.000000,512.000000) scale(0.100000,-0.100000)"
fill="#000000" stroke="none">
<path d="M3220 3840 c-36 -36 -25 -59 54 -112 76 -52 248 -218 329 -318 33
-41 90 -120 126 -175 73 -110 201 -357 202 -390 0 -11 3 -14 6 -7 8 21 -27
172 -64 272 -105 285 -317 556 -567 724 -47 31 -60 32 -86 6z"/>
<path d="M2491 3507 c-7 -9 -11 -24 -9 -34 3 -16 20 -19 163 -24 88 -3 163 -4
168 -2 14 8 7 51 -10 59 -10 4 -81 9 -158 12 -119 3 -143 2 -154 -11z"/>
<path d="M3107 3493 c-4 -3 -7 -16 -7 -28 0 -16 20 -37 70 -74 174 -130 292
-316 339 -536 16 -74 19 -80 44 -83 39 -5 43 17 23 112 -39 180 -122 332 -261
471 -106 106 -187 160 -208 138z"/>
<path d="M2054 3411 c-119 -84 -147 -129 -93 -146 14 -5 32 5 63 33 24 22 63
53 87 68 24 15 47 32 51 37 11 18 -11 56 -33 57 -3 0 -37 -22 -75 -49z"/>
<path d="M2437 3339 c-191 -16 -265 -63 -291 -186 -14 -63 11 -49 116 64 28
31 100 44 283 50 175 6 353 -8 416 -34 53 -21 86 -63 95 -121 6 -41 15 -55 75
-113 91 -89 106 -138 68 -217 -26 -53 -85 -98 -142 -107 -52 -9 -67 -20 -67
-51 0 -20 5 -24 33 -24 53 0 109 20 161 57 l49 35 -7 -29 c-14 -54 -53 -128
-85 -161 -18 -18 -76 -64 -127 -103 -92 -67 -134 -116 -164 -189 -7 -17 -22
-33 -34 -35 -11 -3 -115 -4 -230 -3 l-210 3 -22 58 c-33 83 -65 121 -144 167
-97 57 -125 83 -156 147 -34 68 -37 152 -10 232 20 57 78 124 179 204 50 40
63 82 33 107 -12 9 -19 6 -38 -15 -13 -15 -51 -47 -86 -71 -34 -25 -80 -69
-102 -98 -42 -55 -80 -146 -80 -191 l0 -25 -134 0 c-79 0 -137 4 -141 10 -9
15 -48 12 -73 -6 -25 -17 -30 -60 -9 -87 18 -24 61 -31 76 -13 11 13 38 16
146 16 l133 0 7 -32 c20 -90 90 -176 181 -221 95 -48 135 -93 149 -171 22
-113 209 -188 391 -157 136 24 193 63 251 173 35 67 69 101 166 167 73 50 142
124 172 186 l28 56 151 -5 c83 -2 170 -7 193 -11 37 -6 43 -4 59 20 22 34 10
75 -29 93 -24 12 -32 11 -52 -2 -19 -13 -54 -16 -165 -16 -77 0 -140 3 -140 8
-8 131 -21 214 -38 248 -19 38 -93 118 -126 136 -9 5 -16 21 -16 37 0 47 -45
124 -92 154 -61 40 -126 56 -268 67 -141 11 -193 11 -333 -1z"/>
<path d="M1927 3170 c-45 -53 -92 -142 -123 -232 -31 -93 -31 -116 1 -124 14
-4 29 -4 32 0 4 3 15 38 25 78 19 75 70 177 120 241 29 36 30 39 13 57 -10 11
-22 20 -26 20 -4 0 -23 -18 -42 -40z"/>
<path d="M2336 3157 c-40 -29 5 -95 52 -76 29 11 31 63 3 79 -25 13 -33 13
-55 -3z"/>
<path d="M2590 3111 c-5 -11 -10 -28 -10 -39 0 -14 -9 -21 -33 -26 -34 -6 -65
-33 -86 -73 -6 -12 -11 -68 -11 -126 0 -112 9 -135 48 -123 18 6 20 18 24 110
2 64 8 109 16 119 7 8 31 19 54 22 55 10 78 35 78 88 0 24 -5 48 -12 55 -18
18 -56 14 -68 -7z"/>
<path d="M2817 3046 c-77 -29 -93 -58 -99 -188 -6 -109 2 -132 43 -126 23 3
24 6 29 105 6 114 17 136 76 147 50 10 89 -11 89 -49 0 -27 -3 -30 -55 -39
-52 -10 -55 -13 -58 -43 -3 -33 5 -39 46 -34 11 2 13 -15 7 -86 -10 -122 -17
-128 -140 -128 l-95 0 0 81 c0 69 -3 84 -21 100 -19 17 -23 17 -47 3 -25 -14
-28 -21 -35 -104 -4 -50 -7 -157 -5 -238 3 -143 4 -150 27 -168 54 -44 121 -3
121 74 0 31 -6 49 -20 62 -23 20 -28 83 -8 103 7 7 44 12 98 12 147 0 190 42
190 185 0 79 -1 81 -27 92 l-28 11 32 1 c42 1 91 43 99 86 8 46 -12 101 -47
126 -37 26 -121 34 -172 15z"/>
<path d="M2348 3029 c-16 -9 -18 -27 -18 -147 0 -142 5 -162 42 -162 32 0 40
36 36 171 -2 102 -6 132 -18 139 -19 12 -21 12 -42 -1z"/>
<path d="M1245 2841 c-4 -8 -10 -84 -13 -170 -7 -238 29 -405 134 -613 77
-154 150 -255 274 -379 376 -377 878 -502 1377 -343 195 62 398 182 543 320
42 41 82 74 88 74 6 0 27 -9 46 -21 22 -12 43 -18 55 -14 22 7 165 190 176
225 8 25 -11 50 -62 81 -42 26 -62 19 -97 -37 -16 -25 -53 -77 -83 -115 l-54
-69 -37 25 c-20 14 -40 25 -43 25 -4 0 -43 -31 -87 -69 -352 -303 -794 -412
-1200 -295 -199 58 -372 162 -533 323 -214 213 -341 462 -413 811 -36 172 -61
257 -71 241z"/>
<path d="M2120 2739 c-15 -28 -5 -95 20 -137 31 -50 88 -72 193 -72 l87 0 0
-112 c0 -120 11 -160 45 -166 37 -8 45 23 45 172 0 78 -4 146 -8 152 -17 26
-56 34 -160 34 -134 0 -148 8 -160 90 -6 46 -11 56 -29 58 -14 2 -26 -4 -33
-19z"/>
<path d="M3307 2230 c-33 -26 -36 -71 -7 -100 27 -27 66 -25 96 6 60 59 -23
146 -89 94z"/>
<path d="M1878 2219 c-10 -5 -18 -18 -18 -28 0 -23 69 -102 133 -153 47 -37
51 -38 68 -22 11 9 19 21 19 26 0 8 -175 188 -182 188 -2 0 -11 -5 -20 -11z"/>
<path d="M2310 2020 c-5 -10 -10 -35 -10 -55 0 -47 38 -86 107 -111 l51 -18
-6 -38 c-11 -84 82 -248 140 -248 56 0 141 140 142 236 l0 51 50 17 c70 25
106 64 106 113 0 22 -6 48 -14 58 -12 16 -18 17 -39 8 -20 -9 -26 -21 -29 -50
-3 -32 -8 -40 -38 -55 -84 -40 -209 -45 -309 -12 -72 24 -81 32 -81 68 0 29
-5 36 -30 44 -25 9 -31 8 -40 -8z m356 -243 c-8 -41 -58 -140 -72 -144 -13 -4
-74 125 -74 158 0 24 1 24 76 21 l76 -4 -6 -31z"/>
</g>
</svg>